<?xml version="1.0" encoding="UTF-8" standalone="no"?>
<!-- Created with Inkscape (http://www.inkscape.org/) -->

<svg
   width="126.81228mm"
   height="129.82877mm"
   viewBox="0 0 126.81228 129.82877"
   version="1.1"
   id="svg1"
   inkscape:version="1.3.2 (091e20e, 2023-11-25, custom)"
   sodipodi:docname="Metrobank UI Element Style Guide.svg"
   xml:space="preserve"
   xmlns:inkscape="http://www.inkscape.org/namespaces/inkscape"
   xmlns:sodipodi="http://sodipodi.sourceforge.net/DTD/sodipodi-0.dtd"
   xmlns="http://www.w3.org/2000/svg"
   xmlns:svg="http://www.w3.org/2000/svg"><sodipodi:namedview
     id="namedview1"
     pagecolor="#505050"
     bordercolor="#eeeeee"
     borderopacity="0"
     inkscape:showpageshadow="0"
     inkscape:pageopacity="0"
     inkscape:pagecheckerboard="0"
     inkscape:deskcolor="#505050"
     inkscape:document-units="px"
     inkscape:zoom="0.31937359"
     inkscape:cx="331.89971"
     inkscape:cy="9513.9364"
     inkscape:window-width="1366"
     inkscape:window-height="745"
     inkscape:window-x="-8"
     inkscape:window-y="-8"
     inkscape:window-maximized="1"
     inkscape:current-layer="layer1"
     showguides="false"
     showgrid="false" /><defs
     id="defs1" /><g
     inkscape:label="Layer 1"
     inkscape:groupmode="layer"
     id="layer1"
     transform="translate(1531.3648,-1254.0006)"><g
       id="g9"
       transform="matrix(3.3323252,0,0,3.3323252,-572.22602,1117.8193)"
       style="fill:#023184;fill-opacity:1;stroke-width:0.186983"><path
         id="path5"
         style="color:#000000;fill:#023184;fill-opacity:1;stroke-width:0.070797;stroke-linecap:round;stroke-linejoin:round;-inkscape-stroke:none"
         d="m -268.80122,40.866756 a 1.8077791,1.2929368 0 0 0 -1.27796,0.378789 l -17.22014,12.315527 a 1.8077791,1.2929368 0 0 0 0,1.828312 l 17.21962,12.315527 a 1.8077791,1.2929368 0 0 0 2.55695,5.17e-4 l 5.46014,-3.904671 -0.0124,-2.335775 -1.03766,-0.570508 -5.68906,4.068486 -14.66318,-10.487732 14.6637,-10.487732 14.6637,10.487732 -3.78891,2.709912 0.10335,0.05684 c 0.90416,0.497626 1.46619,1.436142 1.48673,2.462899 l 6.03374,-4.315499 a 1.8077791,1.2929368 0 0 0 -5.1e-4,-1.828312 l -17.21963,-12.315527 a 1.8077791,1.2929368 0 0 0 -1.27795,-0.378789 z" /><path
         id="path6"
         style="color:#000000;fill:#023184;fill-opacity:1;stroke-width:0.0727766;stroke-linecap:round;stroke-linejoin:round;-inkscape-stroke:none"
         d="m -253.05903,62.24478 a 1.5448537,1.5448537 0 0 0 -0.59634,0.133842 c -0.87988,0.392441 -1.7689,0.78934 -2.65824,1.191658 l 0.0186,3.414779 c 0.56896,-0.268337 1.14199,-0.534585 1.72445,-0.797368 v 10.550261 h -28.41739 V 66.248153 c 5.11251,2.381152 9.88505,4.85046 12.95838,8.881628 a 1.5448537,1.5448537 0 0 0 2.48667,-0.03927 c 1.44582,-2.027606 3.34413,-3.640483 5.51284,-5.035868 l -0.0191,-3.625102 c -2.50624,1.441521 -4.84483,3.146103 -6.78305,5.364014 -4.09162,-4.460854 -9.71821,-6.927015 -15.05592,-9.379273 a 1.5448537,1.5448537 0 0 0 -2.18902,1.404049 V 78.28256 a 1.5448537,1.5448537 0 0 0 1.54461,1.544609 h 31.5066 a 1.5448537,1.5448537 0 0 0 1.54461,-1.544609 V 63.789388 a 1.5448537,1.5448537 0 0 0 -1.57768,-1.544608 z" /><ellipse
         style="fill:#023184;fill-opacity:1;stroke:none;stroke-width:0.904401;stroke-linecap:round;stroke-linejoin:round;stroke-dasharray:none;stroke-opacity:1"
         id="ellipse6"
         cx="-268.80115"
         cy="54.475246"
         rx="3.0168934"
         ry="2.1118252" /><path
         id="path7"
         style="color:#000000;fill:#023184;fill-opacity:1;stroke-width:0.0727766;stroke-linecap:round;stroke-linejoin:round;-inkscape-stroke:none"
         d="m -264.35188,55.463281 c -0.28021,0.854479 -0.91639,1.530259 -1.71772,1.993677 l 5.57743,3.066996 0.0527,9.928593 a 1.2872488,1.2872488 0 0 0 1.29398,1.280026 1.2872488,1.2872488 0 0 0 1.28054,-1.293978 l -0.0574,-10.685136 a 1.2873775,1.2873775 0 0 0 -0.66662,-1.120862 z" /></g></g></svg>
