<?xml version="1.0" encoding="UTF-8" standalone="no"?>
<!-- Created with Inkscape (http://www.inkscape.org/) -->

<svg
   width="253.50778mm"
   height="67.125877mm"
   viewBox="0 0 253.50778 67.125877"
   version="1.1"
   id="svg1"
   inkscape:version="1.3.2 (091e20e, 2023-11-25, custom)"
   sodipodi:docname="Full_Logo.svg"
   xml:space="preserve"
   xmlns:inkscape="http://www.inkscape.org/namespaces/inkscape"
   xmlns:sodipodi="http://sodipodi.sourceforge.net/DTD/sodipodi-0.dtd"
   xmlns="http://www.w3.org/2000/svg"
   xmlns:svg="http://www.w3.org/2000/svg"><sodipodi:namedview
     id="namedview1"
     pagecolor="#505050"
     bordercolor="#eeeeee"
     borderopacity="0"
     inkscape:showpageshadow="0"
     inkscape:pageopacity="0"
     inkscape:pagecheckerboard="0"
     inkscape:deskcolor="#505050"
     inkscape:document-units="px"
     inkscape:zoom="0.63874718"
     inkscape:cx="416.4402"
     inkscape:cy="60.274239"
     inkscape:window-width="1366"
     inkscape:window-height="745"
     inkscape:window-x="-8"
     inkscape:window-y="-8"
     inkscape:window-maximized="1"
     inkscape:current-layer="layer1"
     showguides="true"
     showgrid="false" /><defs
     id="defs1" /><g
     inkscape:label="Layer 1"
     inkscape:groupmode="layer"
     id="layer1"
     transform="translate(907.26443,-1761.7959)"><g
       id="g20"
       transform="matrix(1.7229219,0,0,1.7229219,-411.35811,1691.3857)"
       style="stroke-width:0.225518"><path
         id="path5"
         style="color:#000000;fill:#023184;fill-opacity:1;stroke-width:0.0853875;stroke-linecap:round;stroke-linejoin:round;-inkscape-stroke:none"
         d="m -268.80122,40.866756 a 1.8077791,1.2929368 0 0 0 -1.27796,0.378789 l -17.22014,12.315527 a 1.8077791,1.2929368 0 0 0 0,1.828312 l 17.21962,12.315527 a 1.8077791,1.2929368 0 0 0 2.55695,5.17e-4 l 5.46014,-3.904671 -0.0124,-2.335775 -1.03766,-0.570508 -5.68906,4.068486 -14.66318,-10.487732 14.6637,-10.487732 14.6637,10.487732 -3.78891,2.709912 0.10335,0.05684 c 0.90416,0.497626 1.46619,1.436142 1.48673,2.462899 l 6.03374,-4.315499 a 1.8077791,1.2929368 0 0 0 -5.1e-4,-1.828312 l -17.21963,-12.315527 a 1.8077791,1.2929368 0 0 0 -1.27795,-0.378789 z" /><path
         id="path6"
         style="color:#000000;fill:#023184;fill-opacity:1;stroke-width:0.0877755;stroke-linecap:round;stroke-linejoin:round;-inkscape-stroke:none"
         d="m -253.05903,62.24478 a 1.5448537,1.5448537 0 0 0 -0.59634,0.133842 c -0.87988,0.392441 -1.7689,0.78934 -2.65824,1.191658 l 0.0186,3.414779 c 0.56896,-0.268337 1.14199,-0.534585 1.72445,-0.797368 v 10.550261 h -28.41739 V 66.248153 c 5.11251,2.381152 9.88505,4.85046 12.95838,8.881628 a 1.5448537,1.5448537 0 0 0 2.48667,-0.03927 c 1.44582,-2.027606 3.34413,-3.640483 5.51284,-5.035868 l -0.0191,-3.625102 c -2.50624,1.441521 -4.84483,3.146103 -6.78305,5.364014 -4.09162,-4.460854 -9.71821,-6.927015 -15.05592,-9.379273 a 1.5448537,1.5448537 0 0 0 -2.18902,1.404049 V 78.28256 a 1.5448537,1.5448537 0 0 0 1.54461,1.544609 h 31.5066 a 1.5448537,1.5448537 0 0 0 1.54461,-1.544609 V 63.789388 a 1.5448537,1.5448537 0 0 0 -1.57768,-1.544608 z" /><ellipse
         style="fill:#023184;fill-opacity:1;stroke:none;stroke-width:1.09079;stroke-linecap:round;stroke-linejoin:round;stroke-dasharray:none;stroke-opacity:1"
         id="ellipse6"
         cx="-268.80115"
         cy="54.475246"
         rx="3.0168934"
         ry="2.1118252" /><path
         id="path16"
         style="color:#000000;fill:#023184;fill-opacity:1;stroke-width:0.0877755;stroke-linecap:round;stroke-linejoin:round;-inkscape-stroke:none"
         d="m -264.35188,55.463281 c -0.28021,0.854479 -0.91639,1.530259 -1.71772,1.993677 l 5.57743,3.066996 0.0527,9.928593 a 1.2872488,1.2872488 0 0 0 1.29398,1.280026 1.2872488,1.2872488 0 0 0 1.28054,-1.293978 l -0.0574,-10.685136 a 1.2873775,1.2873775 0 0 0 -0.66662,-1.120862 z" /></g><path
       d="m -822.06968,1734.4157 v 25.4431 h -4.97957 v -16.5017 l -7.16039,11.8129 h -0.58156 l -7.1604,-11.7765 v 16.4653 h -5.01591 v -25.4431 h 5.1613 l 7.30579,12.0309 7.26944,-12.0309 z m 8.46892,18.2827 q 0.94502,3.4166 5.12495,3.4166 2.68969,0 4.07089,-1.8174 l 3.78011,2.1809 q -2.6897,3.8891 -7.92369,3.8891 -4.50705,0 -7.23309,-2.726 -2.72604,-2.7261 -2.72604,-6.8696 0,-4.1073 2.68969,-6.8333 2.68969,-2.7624 6.90597,-2.7624 3.99819,0 6.57884,2.7624 2.617,2.7624 2.617,6.8333 0,0.9086 -0.18174,1.9264 z m -0.0727,-3.6348 h 9.26854 q -0.39982,-1.8537 -1.67197,-2.7623 -1.23581,-0.9087 -2.83508,-0.9087 -1.89006,0 -3.12586,0.9814 -1.23581,0.945 -1.63563,2.6896 z m 27.07866,-2.8714 h -4.10723 v 7.5602 q 0,0.9451 0.47251,1.3812 0.47252,0.4362 1.3812,0.5089 0.90868,0.036 2.25352,-0.036 v 4.2527 q -4.83417,0.5452 -6.83327,-0.9087 -1.96275,-1.4539 -1.96275,-5.1977 v -7.5602 h -3.1622 v -4.507 h 3.1622 v -3.6711 l 4.68879,-1.4175 v 5.0886 h 4.10723 z m 8.28717,-1.3812 q 0.65425,-1.7446 2.14449,-2.617 1.52658,-0.8723 3.38029,-0.8723 v 5.234 q -2.14449,-0.2544 -3.85281,0.8723 -1.67197,1.1268 -1.67197,3.7438 v 8.687 h -4.68878 v -18.1736 h 4.68878 z m 23.04419,12.7942 q -2.79873,2.7624 -6.83327,2.7624 -4.03454,0 -6.83328,-2.7624 -2.76238,-2.7987 -2.76238,-6.8332 0,-4.0346 2.76238,-6.797 2.79874,-2.7987 6.83328,-2.7987 4.03454,0 6.83327,2.7987 2.79874,2.7624 2.79874,6.797 0,4.0345 -2.79874,6.8332 z m -10.35895,-3.2349 q 1.41754,1.4176 3.52568,1.4176 2.10814,0 3.52568,-1.4176 1.41754,-1.4175 1.41754,-3.5983 0,-2.1809 -1.41754,-3.5984 -1.41754,-1.4175 -3.52568,-1.4175 -2.10814,0 -3.52568,1.4175 -1.38119,1.4175 -1.38119,3.5984 0,2.1808 1.38119,3.5983 z m 27.04231,-13.194 q 3.67107,0 6.25172,2.7987 2.617,2.7624 2.617,6.797 0,4.0345 -2.617,6.8332 -2.58065,2.7624 -6.25172,2.7624 -3.81645,0 -5.88824,-2.6533 v 2.1445 h -4.68879 v -25.4431 h 4.68879 v 9.414 q 2.07179,-2.6534 5.88824,-2.6534 z m -4.4707,13.3031 q 1.41754,1.4175 3.59837,1.4175 2.18083,0 3.59837,-1.4175 1.45389,-1.4539 1.45389,-3.7074 0,-2.2536 -1.45389,-3.6711 -1.41754,-1.4539 -3.59837,-1.4539 -2.18083,0 -3.59837,1.4539 -1.41754,1.4175 -1.41754,3.6711 0,2.2535 1.41754,3.7074 z m 30.45893,-12.7942 h 4.68879 v 18.1736 h -4.68879 v -2.1445 q -2.10814,2.6533 -5.92459,2.6533 -3.63472,0 -6.25172,-2.7624 -2.58065,-2.7987 -2.58065,-6.8332 0,-4.0346 2.58065,-6.797 2.617,-2.7987 6.25172,-2.7987 3.81645,0 5.92459,2.6534 z m -8.65063,12.7942 q 1.41754,1.4175 3.59837,1.4175 2.18083,0 3.59837,-1.4175 1.45389,-1.4539 1.45389,-3.7074 0,-2.2536 -1.45389,-3.6711 -1.41754,-1.4539 -3.59837,-1.4539 -2.18083,0 -3.59837,1.4539 -1.41755,1.4175 -1.41755,3.6711 0,2.2535 1.41755,3.7074 z m 27.69655,-13.3031 q 2.98047,0 4.90687,1.9991 1.96275,1.9991 1.96275,5.5248 v 11.1586 h -4.68879 v -10.5771 q 0,-1.8173 -0.98137,-2.7624 -0.98138,-0.9813 -2.617,-0.9813 -1.81736,0 -2.90778,1.1267 -1.09041,1.1268 -1.09041,3.3803 v 9.8138 h -4.68879 v -18.1736 h 4.68879 v 2.0354 q 1.70831,-2.5443 5.41573,-2.5443 z m 27.62386,18.6825 h -5.45208 l -6.61519,-8.2508 v 8.2508 h -4.68879 v -25.4431 h 4.68879 v 15.2658 l 6.25171,-7.9963 h 5.59747 l -7.30578,8.9777 z"
       id="text24"
       style="font-size:36.3472px;font-family:Gilroy-Bold;-inkscape-font-specification:'Gilroy-Bold, Normal';fill:#023184;stroke-width:0.363073;stroke-linecap:round;stroke-linejoin:round"
       transform="scale(0.98199982,1.0183301)"
       aria-label="Metrobank " /><path
       d="m -841.9516,1786.3616 h 9.70471 v 4.7978 h -14.72062 v -25.443 h 5.01591 z m 15.92006,-2.3626 q 0.94503,3.4167 5.12496,3.4167 2.68969,0 4.07088,-1.8174 l 3.78011,2.1808 q -2.68969,3.8892 -7.92369,3.8892 -4.50705,0 -7.23309,-2.7261 -2.72604,-2.726 -2.72604,-6.8696 0,-4.1072 2.68969,-6.8332 2.68969,-2.7624 6.90597,-2.7624 3.99819,0 6.57884,2.7624 2.617,2.7623 2.617,6.8332 0,0.9087 -0.18174,1.9264 z m -0.0727,-3.6347 h 9.26853 q -0.39982,-1.8537 -1.67197,-2.7624 -1.2358,-0.9087 -2.83508,-0.9087 -1.89006,0 -3.12586,0.9814 -1.2358,0.945 -1.63562,2.6897 z m 30.8951,-7.3785 h 4.68879 v 18.1736 h -4.68879 v -2.1445 q -2.10814,2.6534 -5.92459,2.6534 -3.63472,0 -6.25172,-2.7624 -2.58065,-2.7987 -2.58065,-6.8333 0,-4.0345 2.58065,-6.7969 2.617,-2.7987 6.25172,-2.7987 3.81645,0 5.92459,2.6533 z m -8.65063,12.7942 q 1.41754,1.4176 3.59837,1.4176 2.18083,0 3.59837,-1.4176 1.45389,-1.4538 1.45389,-3.7074 0,-2.2535 -1.45389,-3.671 -1.41754,-1.4539 -3.59837,-1.4539 -2.18083,0 -3.59837,1.4539 -1.41754,1.4175 -1.41754,3.671 0,2.2536 1.41754,3.7074 z m 22.28081,-9.6683 q 0.65425,-1.7447 2.14448,-2.617 1.52659,-0.8723 3.38029,-0.8723 v 5.2339 q -2.14448,-0.2544 -3.8528,0.8724 -1.67197,1.1267 -1.67197,3.7437 v 8.687 h -4.68879 v -18.1736 h 4.68879 z m 18.35537,-3.6347 q 2.98047,0 4.90687,1.9991 1.96275,1.9991 1.96275,5.5247 v 11.1586 h -4.68879 v -10.577 q 0,-1.8174 -0.98137,-2.7624 -0.98138,-0.9814 -2.617,-0.9814 -1.81736,0 -2.90778,1.1268 -1.09041,1.1268 -1.09041,3.3803 v 9.8137 h -4.68879 v -18.1736 h 4.68879 v 2.0355 q 1.70831,-2.5443 5.41573,-2.5443 z"
       id="text30"
       style="font-size:36.3472px;font-family:Gilroy-Bold;-inkscape-font-specification:'Gilroy-Bold, Normal';fill:#023184;stroke-width:0.363073;stroke-linecap:round;stroke-linejoin:round"
       transform="scale(0.98199982,1.0183301)"
       aria-label="Learn" /></g></svg>
